<svg width="35" height="32" viewBox="0 0 35 32" fill="none" xmlns="http://www.w3.org/2000/svg">
<path d="M0 17.732V25.604C0 26.342 0.171003 28.187 0.855014 29.663C1.53903 31.139 3.09434 31.836 3.78649 32H5.9851C9.60059 31.8032 10.7487 27.654 10.8709 25.604C11.1966 21.996 11.8725 14.7061 11.9702 14.4109C12.0679 14.1157 12.4181 14.0419 12.5809 14.0419C13.5581 14.1403 13.2324 18.6749 12.9474 20.93C12.6216 23.513 12.2878 29.0234 13.5581 30.401C14.8284 31.7786 16.6117 31.795 17.3446 31.631C21.1555 31.5326 22.5154 26.26 22.7189 23.636C23.5984 17.1415 24.2254 16.1739 24.429 16.5019C25.5039 15.5179 25.4469 19.29 25.284 21.299C24.6977 27.0062 26.1797 29.581 26.994 30.155L29.5591 31.016C33.7608 31.016 34.8927 25.03 34.9334 22.037C35.422 14.7553 33.1013 9.24491 31.8798 7.39991C30.5769 5.5549 26.5054 1.59429 20.6425 0.511887C13.3138 -0.841118 12.4588 0.634888 6.84011 3.2179C2.34518 5.28431 0.40715 13.7549 0 17.732Z" fill="#B2278E"/>
</svg>
