<svg width="34" height="32" viewBox="0 0 34 32" fill="none" xmlns="http://www.w3.org/2000/svg">
<path d="M2.28272 6.3853C4.26594 0.40386 14.3299 -0.304469 19.1139 0.089047C20.8971 0.089047 25.1679 0.377622 27.9862 1.53192C31.509 2.97479 32.6832 4.68005 33.5966 9.40224C34.3272 13.18 28.856 15.3487 26.029 15.9608C27.4643 15.9608 32.6832 18.4531 33.5966 21.2077C34.3272 23.4114 33.901 25.5364 33.5966 26.3234C33.7009 29.6814 26.5944 31.308 23.0281 31.7015C19.5053 32.095 11.1549 32.4098 5.93596 30.5209C0.716973 28.6321 -0.15284 25.3615 0.0646266 23.9623C-0.666031 19.555 4.97917 16.7916 7.8931 15.9608C5.02266 15.1738 3.58747 13.3374 2.28272 11.3698C1.23893 9.79576 1.84781 7.39095 2.28272 6.3853Z" fill="#2C5FB2"/>
</svg>
